<?xml version="1.0" encoding="utf-8"?>
<svg version="1.1" xmlns:xlink="http://www.w3.org/1999/xlink" width="50px" height="50px" xmlns="http://www.w3.org/2000/svg">
  <g transform="matrix(1 0 0 1 -632 -20 )">
    <path d="M 50 42.1875  C 50 46.5625  46.5625 50  42.1875 50  L 7.8125 50  C 3.4375000000000004 50  0 46.5625  0 42.1875  C 0 37.8125  3.4375000000000004 34.375  7.8125 34  L 42.1875 34  C 46.5625 34.375  50 37.8125  50 42.1875  Z M 37 14.0625  C 37.5 21.82900429449569  31.204004294495462 28.125  23.4375 28.125  C 15.670995705504536 28.125  9.375 21.82900429449569  9.375 14.0625  C 9.375 6.2959957055043105  15.670995705504536 0  23.4375 0  L 37 0  L 37 14.0625  Z " fill-rule="nonzero" fill="#d7d7d7" stroke="none" transform="matrix(1 0 0 1 632 20 )" />
  </g>
</svg>