<?xml version="1.0" encoding="utf-8"?>
<svg version="1.1" xmlns:xlink="http://www.w3.org/1999/xlink" width="49px" height="49px" xmlns="http://www.w3.org/2000/svg">
  <g transform="matrix(1 0 0 1 -70 -20 )">
    <path d="M 48 38.709677419354875  C 48.381762291970915 44.05215737177059  44.05215737177045 48.38176229197097  38.70967741935483 48  L 9.677419354838705 48  C 4.335307413551462 48.38087519169403  0.006221582499776446 44.05178936064203  0 38.709677419354875  L 0 24.193548387096826  C 0.00018118336652150902 10.831948686874057  10.831948683421203 0.00032806465128487616  24.1935483848725 0.00032806465128487616  C 30.609600775102688 0.00032806465128487616  36.76290848474899 2.5489070936591816  41.3 7.085483870967892  C 45.85281513767623 11.61252611097052  48.40486967801158 17.773118398029737  48 24.193548387096826  L 48 38.709677419354875  Z M 37.096774193548384 24.193548387096826  C 37.08877437976088 17.070609813476267  31.31648696071734 11.298322394432489  24.19354838709677 11.290322580645125  C 17.06729355057041 11.290322580645125  11.290322580645153 17.06729355057041  11.290322580645153 24.193548387096826  C 11.290322580645153 31.31980322362324  17.06729355057041 37.09677419354853  24.19354838709677 37.09677419354853  C 31.319803223623126 37.09677419354853  37.096774193548384 31.31980322362324  37.096774193548384 24.193548387096826  Z " fill-rule="nonzero" fill="#d7d7d7" stroke="none" transform="matrix(1 0 0 1 70 20 )" />
  </g>
</svg>