<?xml version="1.0" encoding="utf-8"?>
<svg version="1.1" xmlns:xlink="http://www.w3.org/1999/xlink" width="56px" height="40px" xmlns="http://www.w3.org/2000/svg">
  <defs>
    <linearGradient gradientUnits="userSpaceOnUse" x1="28" y1="0" x2="28" y2="40" id="LinearGradient44">
      <stop id="Stop45" stop-color="#f23051" offset="0" />
      <stop id="Stop46" stop-color="#ffb300" offset="1" />
    </linearGradient>
  </defs>
  <g transform="matrix(1 0 0 1 -443 -24 )">
    <path d="M 49.46736842105258 33.742982456140226  C 45.76876567327855 37.46189092820646  40.736201989742995 39.54674759779982  35.49122807017545 39  L 9.643274853801245 39  C 4.6073190354648546 39.52705895263762  0.5263328602278534 35.44607277740033  1 30.410116959064453  L 1 19.766842105263322  C 0.5063050049353137 14.5218011738923  2.5912136619982107 9.48911199959548  6.310409356725188 5.790701754385964  C 10.008819601934647 2.0715060596589865  15.04150877623158 -0.013402597403910477  20.28654970760232 0  L 46.13450292397653 0  C 51.17045874231292 0.006625257888572378  55.25144491754992 4.087611433125858  55 9.123567251462191  L 55 19.766842105263322  C 55.271472772842515 25.01188303663389  53.18656411577956 30.044572210930937  49.46736842105258 33.742982456140226  Z M 47.65497076023388 19.766842105263322  C 47.65497076023388 17.24764850954398  45.61276084718145 15.205438596490922  43.09356725146205 15.205438596490922  C 40.57437365574259 15.205438596490922  38.5321637426901 17.24764850954398  38.5321637426901 19.766842105263322  C 38.5321637426901 22.286035700982666  40.57437365574259 24.328245614035268  43.09356725146205 24.328245614035268  C 45.61276084718145 24.328245614035268  47.65497076023388 22.286035700982666  47.65497076023388 19.766842105263322  Z M 32.4502923976608 19.766842105263322  C 32.4502923976608 17.24764850954398  30.408082484608318 15.205438596490922  27.888888888888914 15.205438596490922  C 25.369695293169457 15.205438596490922  23.32748538011697 17.24764850954398  23.32748538011697 19.766842105263322  C 23.32748538011697 22.286035700982666  25.369695293169457 24.328245614035268  27.888888888888914 24.328245614035268  C 30.408082484608318 24.328245614035268  32.4502923976608 22.286035700982666  32.4502923976608 19.766842105263322  Z M 17.24561403508767 19.766842105263322  C 17.24561403508767 17.24764850954398  15.203404122035181 15.205438596490922  12.684210526315724 15.205438596490922  C 10.16501693059638 15.205438596490922  8.122807017543892 17.24764850954398  8.122807017543892 19.766842105263322  C 8.122807017543892 22.286035700982666  10.16501693059638 24.328245614035268  12.684210526315724 24.328245614035268  C 15.203404122035181 24.328245614035268  17.24561403508767 22.286035700982666  17.24561403508767 19.766842105263322  Z " fill-rule="nonzero" fill="url(#LinearGradient44)" stroke="none" transform="matrix(1 0 0 1 443 24 )" />
  </g>
</svg>