<?xml version="1.0" encoding="utf-8"?>
<svg version="1.1" xmlns:xlink="http://www.w3.org/1999/xlink" width="48px" height="48px" xmlns="http://www.w3.org/2000/svg">
  <defs>
    <linearGradient gradientUnits="userSpaceOnUse" x1="24" y1="0" x2="24" y2="48" id="LinearGradient35">
      <stop id="Stop36" stop-color="#f23051" offset="0" />
      <stop id="Stop37" stop-color="#ffb300" offset="1" />
    </linearGradient>
  </defs>
  <g transform="matrix(1 0 0 1 -258 -20 )">
    <path d="M 0 24  C 0 10.745166004061048  10.745166004060934 0  24 0  C 37.254833995939066 0  48 10.745166004061048  48 24  C 48 37.25483399593895  37.254833995939066 48  24 48  C 20.081999999999994 48  22.458000000000027 45.21900000000005  18.09899999999999 40.74000000000001  C 13.887 36.42000000000007  0 38.98500000000013  0 24  Z M 33.74999999999994 33.59999999999991  C 33.74999999999994 31.114718625761498  31.735281374238525 29.09999999999991  29.249999999999943 29.09999999999991  C 26.764718625761418 29.09999999999991  24.749999999999943 31.114718625761498  24.749999999999943 33.59999999999991  C 24.749999999999943 36.08528137423855  26.764718625761418 38.09999999999991  29.249999999999943 38.09999999999991  C 31.735281374238525 38.09999999999991  33.74999999999994 36.08528137423855  33.74999999999994 33.59999999999991  Z M 40.5 22.5  C 40.5 20.843145750507574  39.15685424949237 19.5  37.5 19.5  C 35.84314575050763 19.5  34.5 20.843145750507574  34.5 22.5  C 34.5 24.156854249492426  35.84314575050763 25.5  37.5 25.5  C 39.15685424949237 25.5  40.5 24.156854249492426  40.5 22.5  Z M 36 15  C 36 13.343145750507574  34.65685424949237 12  33 12  C 31.34314575050763 12  30 13.343145750507574  30 15  C 30 16.656854249492426  31.34314575050763 18  33 18  C 34.65685424949237 18  36 16.656854249492426  36 15  Z M 18.75 14.099999999999909  C 18.75 12.44314575050771  17.40685424949237 11.099999999999909  15.75 11.099999999999909  C 14.093145750507631 11.099999999999909  12.75 12.44314575050771  12.75 14.099999999999909  C 12.75 15.756854249492335  14.093145750507631 17.09999999999991  15.75 17.09999999999991  C 17.40685424949237 17.09999999999991  18.75 15.756854249492335  18.75 14.099999999999909  Z M 27.75 11.25  C 27.75 9.593145750507574  26.40685424949237 8.25  24.75 8.25  C 23.09314575050763 8.25  21.75 9.593145750507574  21.75 11.25  C 21.75 12.906854249492426  23.09314575050763 14.25  24.75 14.25  C 26.40685424949237 14.25  27.75 12.906854249492426  27.75 11.25  Z " fill-rule="nonzero" fill="url(#LinearGradient35)" stroke="none" transform="matrix(1 0 0 1 258 20 )" />
  </g>
</svg>